# xmcd
#
# Track frame offsets:
#	150
#	13257
#	31361
#	45718
#	63604
#	78429
#	93337
#	107834
#	124534
#	141580
#	156618
#	174631
#	199737
#	215906
#	232227
#	249543
#
# Disc length: 3589 seconds
#
# Revision: 2
# Processed by: cddbd v1.5.2PL0 Copyright (c) Steve Scherf et al.
# Submitted via: EasyCDDAExtractor 11.5.0.1
#
DISCID=f50e0310
DTITLE=Various Artist - Time-Life Country's Got Heart - Disc II
DYEAR=2004
DGENRE=Country
TTITLE0=Pam Tillis  - mi Vida Loca
TTITLE1=Lonestar - Amazed
TTITLE2=Randy Travis - Look Heart, no Hands
TTITLE3=Mark Chesnutt - I Don't Want to Miss a Thing
TTITLE4=Mark Willis - I Do
TTITLE5=Alabama - Reckless
TTITLE6=Mindy McCready - Guys do it All The Time
TTITLE7=Gary Allen - Man to Man
TTITLE8=Brad Paisley - we Danced
TTITLE9=Cyndi Thomson - What I Really Meant to Say
TTITLE10=Vince Gill - I Still Believe in You
TTITLE11=Sam Evans - Born to Fly
TTITLE12=Clint Black - Like The Rain
TTITLE13=Michael Peterson - From Here to Eternity
TTITLE14=Kenny Chesney - You Had me From Hello
TTITLE15=Alison Krauss and Union Station - When You Say Nothing at All
EXTD=
EXTT0=
EXTT1=
EXTT2=
EXTT3=
EXTT4=
EXTT5=
EXTT6=
EXTT7=
EXTT8=
EXTT9=
EXTT10=
EXTT11=
EXTT12=
EXTT13=
EXTT14=
EXTT15=
PLAYORDER=
